<svg id="Layer_1" data-name="Layer 1" xmlns="http://www.w3.org/2000/svg" viewBox="0 0 19.5 19.5"><defs><style>.cls-1{fill:#c996f8;}.cls-2{fill:none;stroke:#3e057f;stroke-linecap:round;stroke-linejoin:round;stroke-width:1.5px;}</style></defs><title>logosvg</title><g id="Layer_1-2" data-name="Layer 1-2"><circle class="cls-1" cx="9.75" cy="9.75" r="9.75"/><path class="cls-2" d="M10.26,15.44l4-2.4a1,1,0,0,0,.49-.86V8.32a1,1,0,0,0-.49-.86l-4-2.4a1,1,0,0,0-1,0l-4,2.4a1,1,0,0,0-.49.86v3.86a1,1,0,0,0,.49.86l4,2.4A1,1,0,0,0,10.26,15.44Z"/><path class="cls-2" d="M5.25,8.25l4.5,2.5m0,0s3.76-2.05,4.5-2.5m-4.5,2.5v4.5"/></g></svg>