<svg id="Layer_1" data-name="Layer 1" xmlns="http://www.w3.org/2000/svg" viewBox="0 0 19.5 19.5"><title>favicon</title><g id="Layer_1-2" data-name="Layer 1-2"><rect width="19.5" height="19.5" style="fill:#c996f8"/><path d="M3.75.75h-3v3" style="fill:none;stroke:#3e057f;stroke-linecap:round;stroke-linejoin:round;stroke-width:1.5px"/><path d="M15.75.75h3v3" style="fill:none;stroke:#3e057f;stroke-linecap:round;stroke-linejoin:round;stroke-width:1.5px"/><path d="M3.75,18.75h-3v-3" style="fill:none;stroke:#3e057f;stroke-linecap:round;stroke-linejoin:round;stroke-width:1.5px"/><path d="M15.75,18.75h3v-3" style="fill:none;stroke:#3e057f;stroke-linecap:round;stroke-linejoin:round;stroke-width:1.5px"/><path d="M10.26,15.44l4-2.4a1,1,0,0,0,.49-.86V8.32a1,1,0,0,0-.49-.86l-4-2.4a1,1,0,0,0-1,0l-4,2.4a1,1,0,0,0-.49.86v3.86a1,1,0,0,0,.49.86l4,2.4A1,1,0,0,0,10.26,15.44Z" style="fill:none;stroke:#3e057f;stroke-linecap:round;stroke-linejoin:round;stroke-width:1.5px"/><path d="M5.25,8.25l4.5,2.5m0,0s3.76-2.05,4.5-2.5m-4.5,2.5v4.5" style="fill:none;stroke:#3e057f;stroke-linecap:round;stroke-linejoin:round;stroke-width:1.5px"/><rect width="0.75" height="0.75" style="fill:#3e057f"/><rect x="18.75" width="0.75" height="0.75" style="fill:#3e057f"/><rect x="18.75" y="18.75" width="0.75" height="0.75" style="fill:#3e057f"/><rect y="18.75" width="0.75" height="0.75" style="fill:#3e057f"/><rect x="3.75" width="0.75" height="0.75" style="fill:#3e057f"/><rect y="3.75" width="0.75" height="0.75" style="fill:#3e057f"/><rect y="15" width="0.75" height="0.75" style="fill:#3e057f"/><rect x="3.75" y="18.75" width="0.75" height="0.75" style="fill:#3e057f"/><rect x="15" y="18.75" width="0.75" height="0.75" style="fill:#3e057f"/><rect x="18.75" y="15" width="0.75" height="0.75" style="fill:#3e057f"/><rect x="18.75" y="3.75" width="0.75" height="0.75" style="fill:#3e057f"/><rect x="15" width="0.75" height="0.75" style="fill:#3e057f"/></g></svg>