<?xml version="1.0" standalone="no"?>
<!DOCTYPE svg PUBLIC "-//W3C//DTD SVG 20010904//EN"
 "http://www.w3.org/TR/2001/REC-SVG-20010904/DTD/svg10.dtd">
<svg version="1.0" xmlns="http://www.w3.org/2000/svg"
 width="48.000000pt" height="48.000000pt" viewBox="0 0 48.000000 48.000000"
 preserveAspectRatio="xMidYMid meet">

<g transform="translate(0.000000,48.000000) scale(0.100000,-0.100000)"
fill="#000000" stroke="none">
<path d="M170 450 c0 -6 -9 -10 -19 -10 -11 0 -27 -10 -35 -21 -8 -12 -28 -30
-45 -40 -21 -12 -31 -27 -31 -42 0 -13 -3 -27 -7 -31 -11 -11 -13 -136 -3
-136 6 0 10 -9 10 -19 0 -11 10 -27 21 -35 12 -8 30 -28 40 -45 12 -21 27 -31
42 -31 13 0 27 -3 31 -7 11 -11 136 -13 136 -3 0 6 9 10 19 10 11 0 27 10 35
21 8 12 28 30 45 40 21 12 31 27 31 42 0 13 3 27 7 31 11 11 13 136 3 136 -6
0 -10 9 -10 19 0 11 -10 27 -22 35 -12 9 -28 26 -35 38 l-12 23 -1 -22 c0 -13
10 -29 25 -39 14 -9 25 -23 25 -32 0 -8 8 -24 17 -34 14 -16 15 -22 4 -39 -7
-12 -10 -33 -6 -49 3 -16 2 -31 -4 -35 -6 -3 -11 -17 -11 -31 0 -17 -8 -27
-24 -34 -14 -5 -30 -18 -36 -30 -6 -11 -18 -20 -27 -20 -9 0 -25 -8 -35 -17
-16 -14 -22 -15 -39 -4 -12 7 -33 10 -49 6 -16 -3 -31 -2 -35 4 -3 6 -17 11
-31 11 -17 0 -27 8 -34 24 -5 14 -18 30 -30 36 -11 6 -20 18 -20 27 0 9 -8 25
-17 35 -14 16 -15 22 -4 39 7 12 10 33 6 49 -3 16 -2 31 4 35 6 3 11 17 11 31
0 17 8 27 24 34 14 5 30 18 36 30 6 11 18 20 27 20 9 0 25 8 35 17 16 14 22
15 39 4 12 -7 33 -10 49 -6 16 3 31 2 35 -4 8 -14 55 -14 55 -1 0 6 -11 10
-23 10 -13 0 -27 3 -31 7 -11 11 -136 13 -136 3z"/>
<path d="M410 431 c0 -15 6 -21 21 -21 14 0 19 5 17 17 -5 26 -38 29 -38 4z"/>
<path d="M135 400 c-3 -5 -1 -10 4 -10 6 0 11 5 11 10 0 6 -2 10 -4 10 -3 0
-8 -4 -11 -10z"/>
<path d="M225 400 c-4 -6 -17 -9 -30 -6 -22 6 -44 -11 -96 -72 -23 -28 -33
-80 -19 -97 6 -8 9 -23 6 -33 -6 -19 13 -43 72 -93 28 -23 80 -33 97 -19 8 6
23 9 33 6 19 -6 43 13 93 72 23 28 33 80 19 97 -6 8 -9 23 -6 33 6 19 -13 43
-73 94 -26 22 -86 34 -96 18z m85 -35 c9 -8 21 -15 27 -15 14 0 44 -47 42 -63
-1 -6 1 -23 5 -37 14 -51 -54 -156 -96 -149 -7 1 -24 -1 -38 -5 -51 -14 -156
54 -149 96 1 7 -1 24 -5 38 -15 52 59 162 98 147 7 -3 19 -1 27 4 18 12 68 3
89 -16z"/>
<path d="M181 352 c-53 -28 -83 -98 -65 -146 8 -22 23 -10 17 13 -10 38 33 11
57 -35 26 -54 44 -54 74 -1 l21 38 -25 19 c-15 11 -37 18 -52 16 -36 -4 -35 3
3 42 17 17 28 36 24 42 -5 8 1 10 16 8 14 -2 23 -9 21 -17 -1 -7 2 -19 8 -26
8 -9 8 -15 0 -20 -5 -3 -10 -12 -10 -20 0 -17 49 -71 62 -67 20 6 -15 -39 -42
-53 -41 -21 -72 -19 -114 10 -44 30 -50 31 -37 6 12 -22 70 -51 103 -51 60 0
128 69 128 130 0 62 -68 130 -130 130 -14 0 -41 -8 -59 -18z m19 -27 c0 -2
-13 -18 -30 -35 -33 -34 -42 -17 -10 18 19 20 40 29 40 17z m150 -84 c0 -11
-4 -23 -10 -26 -5 -3 -10 -2 -10 4 0 5 -7 17 -16 25 -14 15 -13 16 10 16 19 0
26 -5 26 -19z m-103 -27 c3 -8 -1 -22 -8 -30 -13 -12 -16 -10 -26 16 -10 27
-9 30 8 30 11 0 22 -7 26 -16z"/>
<path d="M320 401 c0 -5 7 -14 15 -21 16 -14 18 -10 9 14 -6 17 -24 22 -24 7z"/>
<path d="M408 268 c9 -9 15 -9 24 0 9 9 7 12 -12 12 -19 0 -21 -3 -12 -12z"/>
<path d="M47 213 c-7 -11 10 -40 18 -31 4 4 3 14 -3 24 -5 9 -12 12 -15 7z"/>
<path d="M32 53 c5 -26 38 -29 38 -4 0 15 -6 21 -21 21 -14 0 -19 -5 -17 -17z"/>
<path d="M265 50 c4 -6 11 -8 16 -5 14 9 11 15 -7 15 -8 0 -12 -5 -9 -10z"/>
</g>
</svg>
